<svg width="84" height="98" viewBox="0 0 84 98" fill="none" xmlns="http://www.w3.org/2000/svg">
<g filter="url(#filter0_dd)">
<path fill-rule="evenodd" clip-rule="evenodd" d="M42 70C57.464 70 70 57.464 70 42C70 26.536 57.464 14 42 14C26.536 14 14 26.536 14 42C14 57.464 26.536 70 42 70Z" fill="#4285F4"/>
<path d="M69.75 42C69.75 57.3259 57.3259 69.75 42 69.75C26.6741 69.75 14.25 57.3259 14.25 42C14.25 26.6741 26.6741 14.25 42 14.25C57.3259 14.25 69.75 26.6741 69.75 42Z" stroke="url(#paint0_linear)" stroke-width="0.5"/>
<path d="M69.75 42C69.75 57.3259 57.3259 69.75 42 69.75C26.6741 69.75 14.25 57.3259 14.25 42C14.25 26.6741 26.6741 14.25 42 14.25C57.3259 14.25 69.75 26.6741 69.75 42Z" stroke="url(#paint1_linear)" stroke-width="0.5"/>
</g>
<path fill-rule="evenodd" clip-rule="evenodd" d="M49 41H43V35H41V41H35V43H41V49H43V43H49V41V41Z" fill="white"/>
<defs>
<filter id="filter0_dd" x="0" y="0" width="84" height="98" filterUnits="userSpaceOnUse" color-interpolation-filters="sRGB">
<feFlood flood-opacity="0" result="BackgroundImageFix"/>
<feColorMatrix in="SourceAlpha" type="matrix" values="0 0 0 0 0 0 0 0 0 0 0 0 0 0 0 0 0 0 127 0"/>
<feOffset dy="14"/>
<feGaussianBlur stdDeviation="7"/>
<feColorMatrix type="matrix" values="0 0 0 0 0 0 0 0 0 0 0 0 0 0 0 0 0 0 0.237602 0"/>
<feBlend mode="normal" in2="BackgroundImageFix" result="effect1_dropShadow"/>
<feColorMatrix in="SourceAlpha" type="matrix" values="0 0 0 0 0 0 0 0 0 0 0 0 0 0 0 0 0 0 127 0"/>
<feOffset/>
<feGaussianBlur stdDeviation="7"/>
<feColorMatrix type="matrix" values="0 0 0 0 0 0 0 0 0 0 0 0 0 0 0 0 0 0 0.12 0"/>
<feBlend mode="normal" in2="effect1_dropShadow" result="effect2_dropShadow"/>
<feBlend mode="normal" in="SourceGraphic" in2="effect2_dropShadow" result="shape"/>
</filter>
<linearGradient id="paint0_linear" x1="14.274" y1="14" x2="14.274" y2="69.452" gradientUnits="userSpaceOnUse">
<stop stop-opacity="0"/>
<stop offset="0.8" stop-opacity="0.02"/>
<stop offset="1" stop-opacity="0.04"/>
</linearGradient>
<linearGradient id="paint1_linear" x1="14" y1="14" x2="14" y2="70" gradientUnits="userSpaceOnUse">
<stop stop-color="white" stop-opacity="0.12"/>
<stop offset="0.2" stop-color="white" stop-opacity="0.06"/>
<stop offset="1" stop-color="white" stop-opacity="0"/>
</linearGradient>
</defs>
</svg>
